<svg xmlns="http://www.w3.org/2000/svg" version="1.1" xmlns:xlink="http://www.w3.org/1999/xlink" width="1000" height="1000"><metadata><rdf:RDF xmlns:rdf="http://www.w3.org/1999/02/22-rdf-syntax-ns#" xmlns:dc="http://purl.org/dc/elements/1.1/"><rdf:Description><dc:creator>RealFaviconGenerator</dc:creator><dc:source>https://realfavicongenerator.net</dc:source></rdf:Description></rdf:RDF></metadata><g clip-path="url(#SvgjsClipPath1149)"><rect width="1000" height="1000" fill="#000000"></rect><g transform="matrix(2.9166666666666665,0,0,2.9166666666666665,150,252.08333333333334)"><svg xmlns="http://www.w3.org/2000/svg" width="240" height="170" viewBox="0 0 240 170" fill="none"><path d="M4 154.93V120.064H9.41699C20.4971 144.199 22.0518 147.482 22.5625 148.996H22.6211C22.3438 144.31 22.2676 139.063 22.2676 133.398V120.064H26.3887V154.93H21.2109C9.70508 129.577 8.28516 126.376 7.83008 124.998H7.77051C8.06543 129.358 8.10352 135.066 8.10352 141.344V154.93H4Z" fill="#7DD3FC"></path><path d="M52.4209 141.61C52.4209 150.767 48.8799 155.41 42.124 155.41C35.2012 155.41 31.833 150.938 31.833 141.698C31.833 132.666 35.8848 128.472 42.3076 128.472C48.8486 128.472 52.4209 132.878 52.4209 141.61ZM36.2471 141.713C36.2471 148.794 38.2754 152.153 42.1689 152.153C46.0547 152.153 48.0068 148.745 48.0068 141.683C48.0068 135.024 46.1104 131.746 42.1484 131.746C38.377 131.746 36.2471 134.666 36.2471 141.713Z" fill="#7DD3FC"></path><path d="M59.1504 128.9C61.6064 137.335 64.5791 147.506 65.1729 150.704H65.2314C65.6309 147.832 70.1182 134.211 71.5703 128.9H75.9258L67.3691 154.93H62.6904L54.5693 128.9H59.1504Z" fill="#7DD3FC"></path><path d="M82.0684 142.618C82.0684 147.717 83.0703 152.172 87.8174 152.172C92.5107 152.172 93.1143 148.304 93.2705 147.513H97.5C97.4199 148.186 96.5811 155.41 87.7754 155.41C78.96 155.41 77.7344 148.386 77.7344 141.909C77.7344 133.672 80.9775 128.472 88.0078 128.472C95.875 128.472 97.7363 134.106 97.7363 140.608C97.7363 141.104 97.7158 141.975 97.6562 142.618H82.0684ZM93.4229 139.667C93.4229 135.19 92.3311 131.691 87.9697 131.691C82.499 131.691 82.2246 137.883 82.1484 139.667H93.4229Z" fill="#7DD3FC"></path><path d="M102.629 154.93V118.386H106.946V154.93H102.629Z" fill="#7DD3FC"></path><path d="M128.51 143.865L125.596 154.93H121.199L130.879 120.064H136.586L146.554 154.93H141.879L138.927 143.865H128.51ZM138.027 140.467C135.7 131.902 134.198 126.45 133.663 123.675H133.524C132.976 126.709 131.338 132.981 129.371 140.467H138.027Z" fill="#7DD3FC"></path><path d="M169.697 153.267C169.697 160.105 167.804 164.906 159.223 164.906C151.494 164.906 149.834 160.54 149.657 157.733H154.029C154.147 159.164 155.125 161.704 159.365 161.704C164.392 161.704 165.422 158.515 165.422 153.267V150.885C164.356 153.535 161.826 154.857 158.457 154.857C152.42 154.857 149.438 150.405 149.438 142.224C149.438 132.857 153.423 128.472 159.105 128.472C163.156 128.472 164.874 130.181 165.422 131.871C165.405 130.721 165.561 129.435 165.641 128.9H169.777C169.718 130.264 169.697 132.899 169.697 136.414V153.267ZM153.895 142.15C153.895 148.465 155.883 151.55 159.604 151.55C164.243 151.55 165.502 147.569 165.502 141.51C165.502 135.387 164.546 131.798 159.973 131.798C156 131.798 153.895 135.389 153.895 142.15Z" fill="#7DD3FC"></path><path d="M179.121 142.618C179.121 147.717 180.123 152.172 184.87 152.172C189.563 152.172 190.167 148.304 190.323 147.513H194.553C194.473 148.186 193.634 155.41 184.828 155.41C176.013 155.41 174.787 148.386 174.787 141.909C174.787 133.672 178.03 128.472 185.061 128.472C192.928 128.472 194.789 134.106 194.789 140.608C194.789 141.104 194.769 141.975 194.709 142.618H179.121ZM190.476 139.667C190.476 135.19 189.384 131.691 185.022 131.691C179.552 131.691 179.277 137.883 179.201 139.667H190.476Z" fill="#7DD3FC"></path><path d="M199.682 136.951C199.682 131.625 199.644 130.106 199.623 128.9H203.797C203.877 129.535 203.957 130.564 203.957 132.314C204.956 130.283 207.014 128.454 211.044 128.454C215.377 128.454 218.739 130.599 218.739 136.384V154.93H214.384V137.128C214.384 133.949 213.188 131.798 209.787 131.798C205.75 131.798 204.037 134.102 204.037 139.44V154.93H199.682V136.951Z" fill="#7DD3FC"></path><path d="M221.525 128.9H225.746V121.966H230.025V128.9H235.237V132.121H230.025V149.199C230.025 150.986 230.473 152.105 232.731 152.105C233.439 152.105 234.289 152.072 234.842 151.97V154.857C233.827 155.204 232.316 155.289 231.31 155.289C227.794 155.289 225.746 154.044 225.746 149.945V132.121H221.525V128.9Z" fill="#7DD3FC"></path><mask id="mask0_19_167" style="mask-type:luminance" maskUnits="userSpaceOnUse" x="59" y="5" width="98" height="98">
<path d="M80.5611 102.86H59.5934L135.399 5H156.366L80.5611 102.86Z" fill="white"></path>
</mask><g mask="url(#mask0_19_167)">
<path d="M59.5934 99.546L65.4677 102.86H59.5934V99.546Z" fill="#7FD3FC"></path>
<path d="M59.5934 96.2316L71.3419 102.86H65.4677L59.5934 99.546V96.2316Z" fill="#81D4FC"></path>
<path d="M59.5934 92.9172L77.2162 102.86H71.3419L59.5934 96.2316V92.9172Z" fill="#83D5FC"></path>
<path d="M59.5934 89.6028L82.9666 102.79L82.8705 102.86H77.2162L59.5934 92.9172V89.6028Z" fill="#85D5FC"></path>
<path d="M59.5934 86.2885L85.5324 100.924L82.9666 102.79L59.5934 89.6028V86.2885Z" fill="#87D6FC"></path>
<path d="M59.5934 82.9741L88.0982 99.057L85.5324 100.924L59.5934 86.2885V82.9741Z" fill="#89D7FC"></path>
<path d="M59.5934 79.6597L90.664 97.1903L88.0982 99.057L59.5934 82.9741V79.6597Z" fill="#8CD7FC"></path>
<path d="M59.5934 76.3453L93.2298 95.3236L90.664 97.1903L59.5934 79.6597V76.3453Z" fill="#8ED8FC"></path>
<path d="M59.5934 73.0309L95.7956 93.4569L93.2298 95.3236L59.5934 76.3453V73.0309Z" fill="#90D9FC"></path>
<path d="M59.5934 69.7166L98.3614 91.5902L95.7956 93.4569L59.5934 73.0309V69.7166Z" fill="#92D9FC"></path>
<path d="M59.5934 66.4022L100.927 89.7235L98.3614 91.5902L59.5934 69.7166V66.4022Z" fill="#94DAFC"></path>
<path d="M59.5934 63.0878L103.493 87.8568L100.927 89.7235L59.5934 66.4022V63.0878Z" fill="#96DBFC"></path>
<path d="M59.5934 59.7734L106.059 85.9901L103.493 87.8568L59.5934 63.0878V59.7734Z" fill="#98DBFC"></path>
<path d="M59.5934 58.4704L61.1504 57.3376L108.625 84.1234L106.059 85.9901L59.5934 59.7734V58.4704Z" fill="#9BDCFC"></path>
<path d="M61.1504 57.3376L63.7162 55.4709L111.19 82.2567L108.625 84.1234L61.1504 57.3376Z" fill="#9DDDFC"></path>
<path d="M63.7163 55.4709L66.2821 53.6042L113.756 80.39L111.191 82.2567L63.7163 55.4709Z" fill="#9FDDFC"></path>
<path d="M66.2821 53.6042L68.8479 51.7375L116.322 78.5233L113.756 80.39L66.2821 53.6042Z" fill="#A1DEFC"></path>
<path d="M68.8479 51.7375L71.4137 49.8708L118.888 76.6566L116.322 78.5233L68.8479 51.7375Z" fill="#A3DFFC"></path>
<path d="M71.4137 49.8708L73.9795 48.0041L121.454 74.7899L118.888 76.6566L71.4137 49.8708Z" fill="#A5DFFC"></path>
<path d="M73.9795 48.0041L76.5453 46.1374L124.02 72.9232L121.454 74.7899L73.9795 48.0041Z" fill="#A8E0FC"></path>
<path d="M76.5453 46.1374L79.1111 44.2707L126.585 71.0565L124.02 72.9232L76.5453 46.1374Z" fill="#AAE1FC"></path>
<path d="M79.1111 44.2707L81.6769 42.404L129.151 69.1898L126.585 71.0565L79.1111 44.2707Z" fill="#ACE1FC"></path>
<path d="M81.6769 42.404L84.2427 40.5373L131.717 67.3231L129.151 69.1898L81.6769 42.404Z" fill="#AEE2FD"></path>
<path d="M84.2427 40.5373L86.8085 38.6706L134.283 65.4564L131.717 67.3231L84.2427 40.5373Z" fill="#B0E3FD"></path>
<path d="M86.8085 38.6705L89.3743 36.8038L136.848 63.5897L134.283 65.4564L86.8085 38.6705Z" fill="#B2E3FD"></path>
<path d="M89.3743 36.8039L91.9401 34.9371L139.414 61.723L136.848 63.5897L89.3743 36.8039Z" fill="#B4E4FD"></path>
<path d="M91.9402 34.9372L94.506 33.0704L141.98 59.8563L139.414 61.723L91.9402 34.9372Z" fill="#B7E5FD"></path>
<path d="M94.506 33.0704L97.0718 31.2037L144.546 57.9896L141.98 59.8563L94.506 33.0704Z" fill="#B9E5FD"></path>
<path d="M97.0718 31.2037L99.6376 29.337L147.112 56.1229L144.546 57.9896L97.0718 31.2037Z" fill="#BBE6FD"></path>
<path d="M99.6376 29.337L102.203 27.4703L149.678 54.2562L147.112 56.1229L99.6376 29.337Z" fill="#BDE7FD"></path>
<path d="M102.203 27.4703L104.769 25.6036L152.243 52.3895L149.678 54.2562L102.203 27.4703Z" fill="#BFE7FD"></path>
<path d="M104.769 25.6036L107.335 23.7369L154.809 50.5228L152.243 52.3895L104.769 25.6036Z" fill="#C1E8FD"></path>
<path d="M107.335 23.7369L109.901 21.8702L156.366 48.0869V49.39L154.809 50.5228L107.335 23.7369Z" fill="#C4E9FD"></path>
<path d="M109.901 21.8702L112.467 20.0035L156.366 44.7725V48.0869L109.901 21.8702Z" fill="#C6E9FD"></path>
<path d="M112.467 20.0035L115.032 18.1368L156.366 41.4582V44.7725L112.467 20.0035Z" fill="#C8EAFD"></path>
<path d="M115.032 18.1368L117.598 16.2701L156.366 38.1438V41.4582L115.032 18.1368Z" fill="#CAEBFD"></path>
<path d="M117.598 16.2701L120.164 14.4034L156.366 34.8294V38.1438L117.598 16.2701Z" fill="#CCEBFD"></path>
<path d="M120.164 14.4034L122.73 12.5367L156.366 31.515V34.8294L120.164 14.4034Z" fill="#CEECFD"></path>
<path d="M122.73 12.5367L125.296 10.67L156.366 28.2006V31.515L122.73 12.5367Z" fill="#D0EDFD"></path>
<path d="M125.296 10.67L127.861 8.80331L156.366 24.8863V28.2006L125.296 10.67Z" fill="#D3EDFD"></path>
<path d="M127.861 8.80332L130.427 6.93661L156.366 21.5719V24.8863L127.861 8.80332Z" fill="#D5EEFD"></path>
<path d="M130.427 6.93662L132.993 5.06992L156.366 18.2575V21.5719L130.427 6.93662Z" fill="#D7EFFD"></path>
<path d="M132.993 5.06992L133.089 5H138.743L156.366 14.9431V18.2575L132.993 5.06992Z" fill="#D9EFFD"></path>
<path d="M144.618 5L156.366 11.6288V14.9431L138.743 5H144.618Z" fill="#DBF0FD"></path>
<path d="M150.492 5L156.366 8.31438V11.6288L144.618 5H150.492Z" fill="#DDF1FD"></path>
<path d="M156.366 5V8.31438L150.492 5H156.366Z" fill="#E0F2FE"></path>
</g><mask id="mask1_19_167" style="mask-type:luminance" maskUnits="userSpaceOnUse" x="51" y="5" width="81" height="98">
<path d="M55.2681 102.86H51.4055L127.211 5H131.073L55.2681 102.86Z" fill="white"></path>
</mask><g mask="url(#mask1_19_167)">
<path d="M51.4055 96.6512L59.6884 101.325L57.5775 102.86H56.9079L51.4055 99.7558V96.6512Z" fill="#81D4FC"></path>
<path d="M51.4055 93.5466L62.0918 99.576L59.6884 101.325L51.4055 96.6512V93.5466Z" fill="#83D5FC"></path>
<path d="M51.4055 90.4421L64.4952 97.8275L62.0918 99.576L51.4055 93.5466V90.4421Z" fill="#85D5FC"></path>
<path d="M51.4055 87.3375L66.8986 96.079L64.4952 97.8275L51.4055 90.4421V87.3375Z" fill="#87D6FC"></path>
<path d="M51.4055 84.2329L69.302 94.3304L66.8986 96.0789L51.4055 87.3375V84.2329Z" fill="#89D7FC"></path>
<path d="M51.4055 81.1283L71.7053 92.5819L69.302 94.3304L51.4055 84.2329V81.1283Z" fill="#8CD7FC"></path>
<path d="M51.4055 78.0238L74.1087 90.8334L71.7053 92.5819L51.4055 81.1283V78.0238Z" fill="#8ED8FC"></path>
<path d="M51.4055 74.9192L76.5121 89.0848L74.1087 90.8333L51.4055 78.0238V74.9192Z" fill="#90D9FC"></path>
<path d="M51.4055 71.8146L78.9155 87.3363L76.5121 89.0848L51.4055 74.9192V71.8146Z" fill="#92D9FC"></path>
<path d="M51.4055 68.7101L81.3189 85.5877L78.9155 87.3363L51.4055 71.8146V68.7101Z" fill="#94DAFC"></path>
<path d="M51.4055 65.6055L83.7223 83.8392L81.3189 85.5877L51.4055 68.71V65.6055Z" fill="#96DBFC"></path>
<path d="M51.4055 62.5009L86.1257 82.0907L83.7223 83.8392L51.4055 65.6055V62.5009Z" fill="#98DBFC"></path>
<path d="M51.4055 59.3963L88.5291 80.3421L86.1257 82.0907L51.4055 62.5009V59.3963Z" fill="#9BDCFC"></path>
<path d="M51.4055 58.4704L53.0921 57.2433L90.9325 78.5936L88.5291 80.3421L51.4055 59.3963V58.4704Z" fill="#9DDDFC"></path>
<path d="M53.092 57.2434L55.4954 55.4948L93.3358 76.8451L90.9324 78.5936L53.092 57.2434Z" fill="#9FDDFC"></path>
<path d="M55.4955 55.4948L57.8989 53.7463L95.7392 75.0965L93.3358 76.8451L55.4955 55.4948Z" fill="#A1DEFC"></path>
<path d="M57.8989 53.7463L60.3023 51.9977L98.1427 73.348L95.7393 75.0965L57.8989 53.7463Z" fill="#A3DFFC"></path>
<path d="M60.3022 51.9977L62.7056 50.2492L100.546 71.5994L98.1426 73.348L60.3022 51.9977Z" fill="#A5DFFC"></path>
<path d="M62.7057 50.2492L65.1091 48.5007L102.949 69.8509L100.546 71.5994L62.7057 50.2492Z" fill="#A8E0FC"></path>
<path d="M65.109 48.5007L67.5124 46.7521L105.353 68.1024L102.949 69.8509L65.109 48.5007Z" fill="#AAE1FC"></path>
<path d="M67.5125 46.7521L69.9158 45.0036L107.756 66.3538L105.353 68.1024L67.5125 46.7521Z" fill="#ACE1FC"></path>
<path d="M69.9158 45.0036L72.3192 43.2551L110.16 64.6053L107.756 66.3538L69.9158 45.0036Z" fill="#AEE2FD"></path>
<path d="M72.3192 43.2551L74.7226 41.5065L112.563 62.8568L110.16 64.6053L72.3192 43.2551Z" fill="#B0E3FD"></path>
<path d="M74.7225 41.5065L77.1259 39.758L114.966 61.1082L112.563 62.8568L74.7225 41.5065Z" fill="#B2E3FD"></path>
<path d="M77.126 39.758L79.5294 38.0094L117.37 59.3597L114.966 61.1082L77.126 39.758Z" fill="#B4E4FD"></path>
<path d="M79.5293 38.0094L81.9327 36.2609L119.773 57.6111L117.37 59.3597L79.5293 38.0094Z" fill="#B7E5FD"></path>
<path d="M81.9327 36.2609L84.3361 34.5124L122.176 55.8626L119.773 57.6111L81.9327 36.2609Z" fill="#B9E5FD"></path>
<path d="M84.3362 34.5124L86.7396 32.7638L124.58 54.1141L122.177 55.8626L84.3362 34.5124Z" fill="#BBE6FD"></path>
<path d="M86.7395 32.7638L89.1429 31.0153L126.983 52.3655L124.58 54.1141L86.7395 32.7638Z" fill="#BDE7FD"></path>
<path d="M89.1429 31.0153L91.5463 29.2668L129.387 50.617L126.983 52.3655L89.1429 31.0153Z" fill="#BFE7FD"></path>
<path d="M91.5463 29.2668L93.9497 27.5182L131.073 48.464V49.39L129.387 50.617L91.5463 29.2668Z" fill="#C1E8FD"></path>
<path d="M93.9497 27.5182L96.3531 25.7697L131.073 45.3594V48.464L93.9497 27.5182Z" fill="#C4E9FD"></path>
<path d="M96.353 25.7697L98.7564 24.0211L131.073 42.2549V45.3594L96.353 25.7697Z" fill="#C6E9FD"></path>
<path d="M98.7565 24.0212L101.16 22.2726L131.073 39.1503V42.2549L98.7565 24.0212Z" fill="#C8EAFD"></path>
<path d="M101.16 22.2726L103.563 20.5241L131.073 36.0457V39.1503L101.16 22.2726Z" fill="#CAEBFD"></path>
<path d="M103.563 20.5241L105.967 18.7755L131.073 32.9412V36.0457L103.563 20.5241Z" fill="#CCEBFD"></path>
<path d="M105.967 18.7755L108.37 17.027L131.073 29.8366V32.9412L105.967 18.7755Z" fill="#CEECFD"></path>
<path d="M108.37 17.027L110.773 15.2785L131.073 26.732V29.8366L108.37 17.027Z" fill="#D0EDFD"></path>
<path d="M110.773 15.2785L113.177 13.5299L131.073 23.6274V26.732L110.773 15.2785Z" fill="#D3EDFD"></path>
<path d="M113.177 13.5299L115.58 11.7814L131.073 20.5229V23.6274L113.177 13.5299Z" fill="#D5EEFD"></path>
<path d="M115.58 11.7814L117.984 10.0329L131.073 17.4183V20.5229L115.58 11.7814Z" fill="#D7EFFD"></path>
<path d="M117.984 10.0329L120.387 8.28433L131.073 14.3137V17.4183L117.984 10.0329Z" fill="#D9EFFD"></path>
<path d="M120.387 8.28433L122.79 6.5358L131.073 11.2092V14.3137L120.387 8.28433Z" fill="#DBF0FD"></path>
<path d="M122.79 6.53578L124.901 5H125.571L131.073 8.10457V11.2091L122.79 6.53578Z" fill="#DDF1FD"></path>
<path d="M131.073 8.10457L125.571 5H131.073V8.10457Z" fill="#E0F2FE"></path>
</g><mask id="mask2_19_167" style="mask-type:luminance" maskUnits="userSpaceOnUse" x="103" y="5" width="102" height="97">
<path d="M167.178 44.3165L160.815 53.3897C160.815 53.3897 160.729 51.6767 161.607 46.6647C156.385 48.3804 146.742 58.5907 146.742 58.5907L140.241 73.6482C140.241 73.6482 141.269 69.9434 141.772 64.478C133.902 74.2618 132.502 87.1054 132.502 87.1054C132.502 87.1054 139.252 75.7073 154.682 61.8416C167.227 50.5698 179.44 46.035 179.44 46.035C179.44 46.035 162.57 56.6573 151.782 68.5115C145.824 75.0573 134.671 88.3496 130.213 95.5203C129.688 96.3657 129.033 97.4206 128.491 98.5328C128.314 98.5692 128.116 98.6043 127.938 98.6352L127.88 98.6454C126.628 98.8638 125.824 98.8117 125.233 98.1065C124.555 97.3524 124.198 95.8758 123.753 94.4012C123.517 93.6505 123.254 92.8517 122.778 92.0493C122.32 91.2595 121.521 90.4372 120.529 90.1199C118.538 89.509 116.895 90.1273 115.431 90.652C113.973 91.2433 112.692 91.7141 111.283 91.927C109.913 92.1544 108.506 92.0926 107.418 91.5162C106.331 90.9481 105.669 89.8067 105.449 88.484C105.215 87.161 105.362 85.722 105.66 84.3226C107.01 78.6697 110.404 73.5509 114.067 68.9136C117.807 64.2746 122.084 60.0551 126.665 56.2092C131.245 52.356 136.112 48.8413 141.165 45.6182L148.836 40.8557C151.344 39.1626 153.847 37.4519 156.162 35.4858C160.744 31.6387 165.258 27.0281 166.814 20.9568C167.504 17.9518 167.175 14.6847 165.723 11.948C164.289 9.2087 162.108 7.65799 159.519 5.97944C159.364 5.87898 159.157 5.92314 159.057 6.07825C158.956 6.23323 159 6.44054 159.155 6.54113L159.179 6.55654C161.627 8.14404 163.772 9.65291 165.122 12.2556C166.499 14.8625 166.821 17.9409 166.107 20.7871C164.549 26.5364 160.099 30.9988 155.526 34.7095C153.222 36.6073 150.721 38.2605 148.219 39.8948C145.675 41.4542 143.067 42.9684 140.508 44.5829C135.4 47.8075 130.472 51.3302 125.823 55.2046C121.181 59.0817 116.798 63.3015 112.939 67.9996C109.158 72.7194 105.614 77.8583 104.077 83.9688C103.74 85.5001 103.539 87.1092 103.809 88.7645C104.04 90.3898 104.979 92.161 106.603 93.0155C108.199 93.8686 109.97 93.8928 111.544 93.6568C113.129 93.4618 114.676 92.83 116.036 92.3863C117.366 91.9638 118.846 91.7242 119.751 92.135C120.609 92.4748 121.036 93.6409 121.356 95.0517C121.722 96.4476 121.829 98.0547 122.907 99.7917C123.453 100.647 124.43 101.412 125.458 101.715C126.484 102.036 127.454 102.03 128.353 101.962C128.406 101.957 128.462 101.951 128.515 101.941C128.638 101.92 128.739 101.856 128.85 101.811C128.851 101.81 128.853 101.81 128.854 101.809C129.051 101.727 129.221 101.618 129.369 101.475C129.439 101.415 129.508 101.348 129.575 101.277C129.584 101.264 129.596 101.253 129.606 101.239C130.66 100.085 131.405 97.5567 133.288 94.7851C146.052 104.333 158.225 92.1585 158.225 92.1585C158.225 92.1585 155.922 90.0876 152.304 88.8745C154.962 87.2365 162.354 87.7863 162.354 87.7863C162.354 87.7863 170.381 77.2025 172.939 73.3534C171.591 72.8176 161.677 69.5367 161.677 69.5367C161.677 69.5367 169.995 68.6219 175.869 69.4162C177.712 67.1923 184.776 57.9246 184.776 57.9246C184.776 57.9246 182.069 55.4554 177.928 53.8942C182.371 53.2387 186.796 55.2829 186.796 55.2829C186.796 55.2829 194.629 45.9748 204.407 39.8968C184.42 34.9739 167.178 44.3165 167.178 44.3165Z" fill="white"></path>
</mask><g mask="url(#mask2_19_167)">
<path d="M105.873 5.87897H103.683V104.333H105.873V5.87897Z" fill="#7FD3FC"></path>
<path d="M108.062 5.87897H105.873V104.333H108.062V5.87897Z" fill="#81D4FC"></path>
<path d="M110.252 5.87897H108.062V104.333H110.252V5.87897Z" fill="#83D5FC"></path>
<path d="M112.442 5.87897H110.252V104.333H112.442V5.87897Z" fill="#85D5FC"></path>
<path d="M114.631 5.87897H112.442V104.333H114.631V5.87897Z" fill="#87D6FC"></path>
<path d="M116.821 5.87897H114.631V104.333H116.821V5.87897Z" fill="#89D7FC"></path>
<path d="M119.011 5.87897H116.821V104.333H119.011V5.87897Z" fill="#8CD7FC"></path>
<path d="M121.2 5.87897H119.011V104.333H121.2V5.87897Z" fill="#8ED8FC"></path>
<path d="M123.39 5.87897H121.2V104.333H123.39V5.87897Z" fill="#90D9FC"></path>
<path d="M125.58 5.87897H123.39V104.333H125.58V5.87897Z" fill="#92D9FC"></path>
<path d="M127.769 5.87897H125.58V104.333H127.769V5.87897Z" fill="#94DAFC"></path>
<path d="M129.959 5.87897H127.769V104.333H129.959V5.87897Z" fill="#96DBFC"></path>
<path d="M132.148 5.87897H129.959V104.333H132.148V5.87897Z" fill="#98DBFC"></path>
<path d="M134.338 5.87897H132.149V104.333H134.338V5.87897Z" fill="#9BDCFC"></path>
<path d="M136.528 5.87897H134.338V104.333H136.528V5.87897Z" fill="#9DDDFC"></path>
<path d="M138.717 5.87897H136.528V104.333H138.717V5.87897Z" fill="#9FDDFC"></path>
<path d="M140.907 5.87897H138.718V104.333H140.907V5.87897Z" fill="#A1DEFC"></path>
<path d="M143.097 5.87897H140.907V104.333H143.097V5.87897Z" fill="#A3DFFC"></path>
<path d="M145.286 5.87897H143.097V104.333H145.286V5.87897Z" fill="#A5DFFC"></path>
<path d="M147.476 5.87897H145.286V104.333H147.476V5.87897Z" fill="#A8E0FC"></path>
<path d="M149.666 5.87897H147.476V104.333H149.666V5.87897Z" fill="#AAE1FC"></path>
<path d="M151.855 5.87897H149.666V104.333H151.855V5.87897Z" fill="#ACE1FC"></path>
<path d="M154.045 5.87897H151.855V104.333H154.045V5.87897Z" fill="#AEE2FD"></path>
<path d="M156.235 5.87897H154.045V104.333H156.235V5.87897Z" fill="#B0E3FD"></path>
<path d="M158.424 5.87897H156.235V104.333H158.424V5.87897Z" fill="#B2E3FD"></path>
<path d="M160.614 5.87897H158.424V104.333H160.614V5.87897Z" fill="#B4E4FD"></path>
<path d="M162.804 5.87897H160.614V104.333H162.804V5.87897Z" fill="#B7E5FD"></path>
<path d="M164.993 5.87897H162.804V104.333H164.993V5.87897Z" fill="#B9E5FD"></path>
<path d="M167.183 5.87897H164.993V104.333H167.183V5.87897Z" fill="#BBE6FD"></path>
<path d="M169.372 5.87897H167.183V104.333H169.372V5.87897Z" fill="#BDE7FD"></path>
<path d="M171.562 5.87897H169.372V104.333H171.562V5.87897Z" fill="#BFE7FD"></path>
<path d="M173.752 5.87897H171.562V104.333H173.752V5.87897Z" fill="#C1E8FD"></path>
<path d="M175.941 5.87897H173.752V104.333H175.941V5.87897Z" fill="#C4E9FD"></path>
<path d="M178.131 5.87897H175.941V104.333H178.131V5.87897Z" fill="#C6E9FD"></path>
<path d="M180.321 5.87897H178.131V104.333H180.321V5.87897Z" fill="#C8EAFD"></path>
<path d="M182.51 5.87897H180.321V104.333H182.51V5.87897Z" fill="#CAEBFD"></path>
<path d="M184.7 5.87897H182.51V104.333H184.7V5.87897Z" fill="#CCEBFD"></path>
<path d="M186.89 5.87897H184.7V104.333H186.89V5.87897Z" fill="#CEECFD"></path>
<path d="M189.079 5.87897H186.89V104.333H189.079V5.87897Z" fill="#D0EDFD"></path>
<path d="M191.269 5.87897H189.079V104.333H191.269V5.87897Z" fill="#D3EDFD"></path>
<path d="M193.459 5.87897H191.269V104.333H193.459V5.87897Z" fill="#D5EEFD"></path>
<path d="M195.648 5.87897H193.458V104.333H195.648V5.87897Z" fill="#D7EFFD"></path>
<path d="M197.838 5.87897H195.648V104.333H197.838V5.87897Z" fill="#D9EFFD"></path>
<path d="M200.028 5.87897H197.838V104.333H200.028V5.87897Z" fill="#DBF0FD"></path>
<path d="M202.217 5.87897H200.027V104.333H202.217V5.87897Z" fill="#DDF1FD"></path>
<path d="M204.407 5.87897H202.217V104.333H204.407V5.87897Z" fill="#E0F2FE"></path>
</g></svg></g></g><defs><clipPath id="SvgjsClipPath1149"><rect width="1000" height="1000" x="0" y="0" rx="500" ry="500"></rect></clipPath></defs></svg>